<svg xmlns="http://www.w3.org/2000/svg" viewBox="0 0 49.23 33"><defs><style>.cls-1{fill:#417cbd;}</style></defs><title>hoobies</title><g id="Calque_2" data-name="Calque 2"><g id="Calque_1-2" data-name="Calque 1"><path id="Icon_map-night-club" data-name="Icon map-night-club" class="cls-1" d="M49,0H33a52.42,52.42,0,0,0,1.06,17c.86,1.43,3,2.2,5.33,2.39V29.81H39L35.13,33H46.84L43,29.81h-.45V19.34c2.26-.29,4.32-1.08,5.32-2.31C50,9.58,49,0,49,0ZM47.9,6.39H34.06V1.07H47.9ZM21.82,29.81H16v-9L27.68,3.19H0L11.71,20.76v9H5.85a1.6,1.6,0,0,0,0,3.19h16a1.6,1.6,0,1,0,.2-3.19Z"/></g></g></svg>