<svg xmlns="http://www.w3.org/2000/svg" xmlns:xlink="http://www.w3.org/1999/xlink" viewBox="0 0 274.31 88.95"><defs><style>.cls-1{fill:none;}.cls-2{clip-path:url(#clip-path);}.cls-10,.cls-11,.cls-3,.cls-4,.cls-5,.cls-6,.cls-7,.cls-8,.cls-9{isolation:isolate;}.cls-4,.cls-5,.cls-6{font-size:66px;}.cls-10,.cls-11,.cls-12,.cls-4,.cls-5,.cls-6,.cls-7,.cls-8,.cls-9{fill:#417cbd;}.cls-10,.cls-11,.cls-4,.cls-5,.cls-6,.cls-7,.cls-8,.cls-9{font-family:Arial-BoldMT, Arial;font-weight:700;}.cls-5{letter-spacing:-0.01em;}.cls-6{letter-spacing:-0.02em;}.cls-10,.cls-11,.cls-7,.cls-8,.cls-9{font-size:20px;}.cls-8{letter-spacing:0em;}.cls-9{letter-spacing:-0.01em;}.cls-10{letter-spacing:-0.01em;}.cls-11{letter-spacing:-0.02em;}</style><clipPath id="clip-path" transform="translate(0 0.08)"><rect class="cls-1" width="274.46" height="85.32"/></clipPath></defs><title>logo</title><g id="Calque_2" data-name="Calque 2"><g id="Calque_1-2" data-name="Calque 1"><g class="cls-2"><g id="Groupe_6" data-name="Groupe 6"><g id="I-wam" class="cls-3"><text class="cls-4" transform="translate(0 56.62)">I</text><text class="cls-5" transform="translate(18.34 56.62)">-</text><text class="cls-6" transform="translate(39.72 56.62)">w</text><text class="cls-4" transform="translate(89.47 56.62)">am</text></g><g id="The_meeting_of_tomorrow" data-name="The meeting of tomorrow" class="cls-3"><text class="cls-7" transform="translate(0 81.42)">The meeting </text><text class="cls-8" transform="translate(123.35 81.42)">o</text><text class="cls-7" transform="translate(135.49 81.42)">f </text><text class="cls-9" transform="translate(147.7 81.42)">t</text><text class="cls-7" transform="translate(154.06 81.42)">omor</text><text class="cls-10" transform="translate(204.06 81.42)">r</text><text class="cls-11" transform="translate(211.65 81.42)">o</text><text class="cls-7" transform="translate(223.38 81.42)">w</text></g><path id="Tracé_1" data-name="Tracé 1" class="cls-12" d="M273.73,33.44,248.14,47a1.08,1.08,0,0,1-1,0L221.53,33.44a1.08,1.08,0,0,1-.46-1.46,1.11,1.11,0,0,1,.5-.48l25.6-12.08a1.06,1.06,0,0,1,.92,0l25.6,12.08a1.1,1.1,0,0,1,.52,1.45,1.08,1.08,0,0,1-.48.49" transform="translate(0 0.08)"/><path id="Tracé_2" data-name="Tracé 2" class="cls-12" d="M267.09,38.5V55a1.56,1.56,0,0,1-1.56,1.56h-35.8A1.56,1.56,0,0,1,228.17,55h0V38.5l19,10a1.08,1.08,0,0,0,1,0Z" transform="translate(0 0.08)"/></g></g></g></g></svg>