<svg xmlns="http://www.w3.org/2000/svg" viewBox="0 0 53.44 53.44"><defs><style>.cls-1{fill:#417cbd;}</style></defs><title>transport</title><g id="Calque_2" data-name="Calque 2"><g id="Calque_1-2" data-name="Calque 1"><path id="Icon_awesome-bus" data-name="Icon awesome-bus" class="cls-1" d="M50.94,13.36H50.1v-5C50.1,3.67,39.75,0,26.72,0S3.34,3.67,3.34,8.35v5H2.5A2.5,2.5,0,0,0,0,15.86v8.35a2.5,2.5,0,0,0,2.5,2.5h.84v16.7a3.35,3.35,0,0,0,3.34,3.34h0V50.1A3.35,3.35,0,0,0,10,53.44h3.34A3.35,3.35,0,0,0,16.7,50.1h0V46.76h20V50.1a3.35,3.35,0,0,0,3.34,3.34h3.34a3.35,3.35,0,0,0,3.34-3.34h0V46.76h.67a2.64,2.64,0,0,0,2.67-2.6V26.72h.83a2.5,2.5,0,0,0,2.5-2.5V15.87A2.49,2.49,0,0,0,51,13.36ZM11.69,41.75A3.34,3.34,0,1,1,15,38.41a3.35,3.35,0,0,1-3.34,3.34Zm1.67-11.69A3.35,3.35,0,0,1,10,26.72h0V13.36A3.35,3.35,0,0,1,13.36,10H40.08a3.35,3.35,0,0,1,3.34,3.34h0V26.72a3.35,3.35,0,0,1-3.34,3.34H13.36ZM41.75,41.75a3.34,3.34,0,1,1,3.34-3.34,3.35,3.35,0,0,1-3.34,3.34Z"/></g></g></svg>