<svg xmlns="http://www.w3.org/2000/svg" viewBox="0 0 324.54 226.53"><defs><style>.cls-1{fill:#407bbc;}</style></defs><g id="Calque_2" data-name="Calque 2"><g id="Calque_1-2" data-name="Calque 1"><path class="cls-1" d="M321,85.94,165.35,168.1a6.58,6.58,0,0,1-6.16,0L3.52,85.94a6.6,6.6,0,0,1,.26-11.8L159.45.63a6.6,6.6,0,0,1,5.63,0L320.76,74.14A6.6,6.6,0,0,1,321,85.94Z"/><path class="cls-1" d="M280.62,116.7V217.07a9.46,9.46,0,0,1-9.47,9.46H53.39a9.46,9.46,0,0,1-9.47-9.46V116.7l115.22,60.88a6.59,6.59,0,0,0,6.25,0Z"/></g></g></svg>