<svg xmlns="http://www.w3.org/2000/svg" viewBox="0 0 1665.5 456.55"><defs><style>.cls-1{fill:#407bbc;}</style></defs><g id="Calque_2" data-name="Calque 2"><g id="Calque_1-2" data-name="Calque 1"><path class="cls-1" d="M24,0h79.33V284.78H24Z"/><path class="cls-1" d="M146.4,123.68H279.84v67.94H146.4Z"/><path class="cls-1" d="M296.93,64.69H372.6l28.88,110.65L435.25,63.87h63.87L533.3,176.16,563,64.69h74.45L569.5,286.41H502.78L467,172.09,430.37,286.41H364.05Z"/><path class="cls-1" d="M641.92,221.72v-.81c0-45.57,34.58-69.16,86.24-69.16,20.35,0,40.28,4.07,52.89,8.54v-3.66c0-22.78-14.24-35.8-43.94-35.8-23.19,0-41.09,4.47-60.61,12.2L660.63,78.52c24.82-10.17,51.26-17.09,89.1-17.09,39.46,0,66.31,9.36,83.8,26.85,16.68,16.28,23.6,39.06,23.6,70V284.78H780.64V262c-15,16.68-35.8,27.66-64.68,27.66C674.06,289.66,641.92,265.66,641.92,221.72Zm140-16.68V194.87a81.11,81.11,0,0,0-30.11-5.69c-22.38,0-35.39,11-35.39,27.25v.82c0,15.05,11.39,24,27.25,24C766,241.25,781.87,227,781.87,205Z"/><path class="cls-1" d="M896.59,64.69h77.3v30.1c14.24-18.31,34.58-35,65.5-35,29.29,0,51.66,13,63.46,35.8,19.12-22,41.5-35.8,73.64-35.8,46.78,0,75.26,29.3,75.26,80.56V284.78h-77.3V165.17c0-24-11.79-36.61-30.1-36.61s-31.73,12.61-31.73,36.61V284.78h-77.3V165.17c0-24-11.8-36.61-30.11-36.61s-31.32,12.61-31.32,36.61V284.78h-77.3Z"/><path class="cls-1" d="M26.48,369.28H0V347.84H77.43v21.44H51v66.84H26.48Z"/><path class="cls-1" d="M86.77,344.06h24v33.17c4.41-5.68,10.72-10.85,20.43-10.85,14.5,0,23.2,9.58,23.2,25.1v44.64h-24V399.17c0-7.44-3.91-11.48-9.58-11.48s-10.09,4-10.09,11.48v36.95h-24Z"/><path class="cls-1" d="M164,402.32v-.25c0-19.93,14.25-35.69,34.43-35.69,23.58,0,34.43,17.28,34.43,37.33,0,1.51,0,3.28-.13,4.92H187c1.89,7.44,7.31,11.22,14.75,11.22,5.68,0,10.22-2.14,15.14-6.93l13.24,11c-6.56,8.32-16,13.87-29.64,13.87C179.08,437.76,164,423.51,164,402.32Zm46.41-5.93c-.88-7.56-5.3-12.35-11.86-12.35-6.3,0-10.59,4.91-11.85,12.35Z"/><path class="cls-1" d="M278,367.89h24v9.34c4.41-5.68,10.72-10.85,20.3-10.85,9.08,0,16,4,19.68,11.1,5.92-6.81,12.86-11.1,22.82-11.1,14.51,0,23.33,9.08,23.33,25v44.77h-24V399c0-7.44-3.66-11.35-9.33-11.35s-9.84,3.91-9.84,11.35v37.08H321V399c0-7.44-3.66-11.35-9.33-11.35s-9.71,3.91-9.71,11.35v37.08H278Z"/><path class="cls-1" d="M397.64,402.32v-.25c0-19.93,14.25-35.69,34.43-35.69,23.58,0,34.43,17.28,34.43,37.33,0,1.51,0,3.28-.13,4.92H420.72c1.89,7.44,7.31,11.22,14.75,11.22,5.68,0,10.22-2.14,15.14-6.93l13.24,11c-6.56,8.32-16,13.87-29.64,13.87C412.77,437.76,397.64,423.51,397.64,402.32Zm46.41-5.93c-.88-7.56-5.3-12.35-11.86-12.35-6.3,0-10.59,4.91-11.85,12.35Z"/><path class="cls-1" d="M473.94,402.32v-.25c0-19.93,14.25-35.69,34.43-35.69,23.58,0,34.43,17.28,34.43,37.33,0,1.51,0,3.28-.13,4.92H497c1.89,7.44,7.31,11.22,14.75,11.22,5.68,0,10.22-2.14,15.14-6.93l13.24,11c-6.56,8.32-16,13.87-29.64,13.87C489.07,437.76,473.94,423.51,473.94,402.32Zm46.41-5.93c-.88-7.56-5.3-12.35-11.86-12.35-6.3,0-10.59,4.91-11.85,12.35Z"/><path class="cls-1" d="M557.18,414.93V387.19H549.1v-19.3h8.08V350.62h24v17.27H597v19.3H581.14v23.08c0,4.79,2.14,6.81,6.55,6.81a21.09,21.09,0,0,0,9.08-2.27V433.6a34.21,34.21,0,0,1-16.64,3.91C565.75,437.51,557.18,431.2,557.18,414.93Z"/><path class="cls-1" d="M607.37,344.06h25v17.65h-25Zm.5,23.83h24v68.23h-24Z"/><path class="cls-1" d="M645.2,367.89h24v9.59c4.42-5.68,10.72-11.1,20.43-11.1,14.51,0,23.21,9.58,23.21,25.1v44.64h-24V399.17c0-7.44-3.91-11.48-9.59-11.48s-10.09,4-10.09,11.48v36.95h-24Z"/><path class="cls-1" d="M724.53,448.73l7.69-15.89a47.06,47.06,0,0,0,23.84,6.43c12,0,17.9-5.92,17.9-16.77v-2.65c-4.79,5.55-11.09,10.22-21.06,10.22-16.77,0-30.26-12.11-30.26-31.66v-.25c0-19.67,13.74-31.78,29.51-31.78,10.21,0,16.27,4.16,21.44,9.58v-8.07h24v51.84c0,12.48-2.78,21.18-8.83,27.24s-15.76,9.58-30,9.58C745.46,456.55,734.37,453.78,724.53,448.73ZM774,398.41v-.25c0-7.57-5.8-13.12-13.87-13.12s-14,5.68-14,13.25v.25c0,7.57,5.81,13.11,14,13.11S774,406,774,398.41Z"/><path class="cls-1" d="M842.57,402.32v-.25c0-19.42,15.89-35.69,37.84-35.69S918,382.4,918,401.82v.25c0,19.42-15.89,35.69-37.84,35.69S842.57,421.74,842.57,402.32Zm52.09,0v-.25c0-8.32-6.06-15.39-14.51-15.39-8.7,0-14.25,6.94-14.25,15.14v.25c0,8.32,6.06,15.39,14.51,15.39C889.11,417.46,894.66,410.52,894.66,402.32Z"/><path class="cls-1" d="M931.74,387.06h-8V368.27h8v-1.51c0-7.82,1.76-13.62,5.8-17.66s9.71-5.93,17.78-5.93c7.31,0,11.85.76,15.64,1.9V362a28.21,28.21,0,0,0-9-1.39c-4.41,0-6.81,2-6.81,6.43v1.64h15.64v18.41H955.57v49.06H931.74Z"/><path class="cls-1" d="M1017.49,414.93V387.19h-8.07v-19.3h8.07V350.62h24v17.27h15.89v19.3h-15.89v23.08c0,4.79,2.14,6.81,6.55,6.81a21.09,21.09,0,0,0,9.08-2.27V433.6a34.21,34.21,0,0,1-16.64,3.91C1026.07,437.51,1017.49,431.2,1017.49,414.93Z"/><path class="cls-1" d="M1063,402.32v-.25c0-19.42,15.89-35.69,37.84-35.69s37.58,16,37.58,35.44v.25c0,19.42-15.89,35.69-37.84,35.69S1063,421.74,1063,402.32Zm52.09,0v-.25c0-8.32-6.06-15.39-14.51-15.39-8.7,0-14.25,6.94-14.25,15.14v.25c0,8.32,6.06,15.39,14.51,15.39C1109.56,417.46,1115.11,410.52,1115.11,402.32Z"/><path class="cls-1" d="M1148.53,367.89h24v9.34c4.41-5.68,10.72-10.85,20.3-10.85,9.09,0,16,4,19.68,11.1,5.93-6.81,12.86-11.1,22.82-11.1,14.51,0,23.34,9.08,23.34,25v44.77h-24V399c0-7.44-3.65-11.35-9.33-11.35s-9.83,3.91-9.83,11.35v37.08h-24V399c0-7.44-3.65-11.35-9.33-11.35s-9.71,3.91-9.71,11.35v37.08h-24Z"/><path class="cls-1" d="M1268.21,402.32v-.25c0-19.42,15.89-35.69,37.84-35.69s37.58,16,37.58,35.44v.25c0,19.42-15.89,35.69-37.84,35.69S1268.21,421.74,1268.21,402.32Zm52.09,0v-.25c0-8.32-6.06-15.39-14.51-15.39-8.7,0-14.25,6.94-14.25,15.14v.25c0,8.32,6.06,15.39,14.51,15.39C1314.75,417.46,1320.3,410.52,1320.3,402.32Z"/><path class="cls-1" d="M1353.72,367.89h24v13.75c3.91-9.33,10.21-15.39,21.57-14.88V392h-2c-12.49,0-19.55,7.19-19.55,22.95v21.19h-24Z"/><path class="cls-1" d="M1407.69,367.89h24v13.75c3.91-9.33,10.21-15.39,21.56-14.88V392h-2c-12.48,0-19.54,7.19-19.54,22.95v21.19h-24Z"/><path class="cls-1" d="M1457.64,402.32v-.25c0-19.42,15.89-35.69,37.83-35.69s37.58,16,37.58,35.44v.25c0,19.42-15.89,35.69-37.83,35.69S1457.64,421.74,1457.64,402.32Zm52.08,0v-.25c0-8.32-6-15.39-14.5-15.39-8.7,0-14.25,6.94-14.25,15.14v.25c0,8.32,6,15.39,14.5,15.39C1504.17,417.46,1509.72,410.52,1509.72,402.32Z"/><path class="cls-1" d="M1535.07,367.89h23.46l9,34.31L1578,367.64h19.8l10.59,34.81,9.21-34.56h23.08l-21.06,68.73h-20.69l-11.09-35.43-11.35,35.43h-20.56Z"/><path class="cls-1" d="M1662,142.4l-155.67,82.16a6.56,6.56,0,0,1-6.15,0L1344.48,142.4a6.6,6.6,0,0,1,.27-11.8l155.67-73.51a6.6,6.6,0,0,1,5.63,0l155.67,73.51A6.6,6.6,0,0,1,1662,142.4Z"/><path class="cls-1" d="M1621.58,173.16V273.52a9.46,9.46,0,0,1-9.46,9.47H1394.35a9.47,9.47,0,0,1-9.47-9.47V173.16L1500.11,234a6.65,6.65,0,0,0,6.25,0Z"/></g></g></svg>