<svg xmlns="http://www.w3.org/2000/svg" viewBox="0 0 53.44 53.44"><defs><style>.cls-1{fill:#417cbd;}</style></defs><title>question</title><g id="Calque_2" data-name="Calque 2"><g id="Calque_1-2" data-name="Calque 1"><path id="Icon_awesome-question-circle" data-name="Icon awesome-question-circle" class="cls-1" d="M53.44,26.72A26.72,26.72,0,1,1,26.72,0h0A26.72,26.72,0,0,1,53.44,26.72Zm-26-17.88c-5.87,0-9.62,2.47-12.56,6.87a1.29,1.29,0,0,0,.3,1.75l3.73,2.83a1.29,1.29,0,0,0,1.8-.23c1.93-2.44,3.25-3.85,6.18-3.85,2.2,0,4.92,1.41,4.92,3.55,0,1.61-1.33,2.44-3.5,3.66-2.54,1.42-5.89,3.19-5.89,7.61v.43a1.3,1.3,0,0,0,1.29,1.3h6A1.3,1.3,0,0,0,31,31.46v-.14c0-3.07,9-3.2,9-11.49C40,13.57,33.51,8.84,27.44,8.84Zm-.72,26.72a5,5,0,1,0,5,4.95,5,5,0,0,0-5-4.95Z"/></g></g></svg>